<?xml version="1.0" encoding="iso-8859-1"?>
<!-- Uploaded to: SVG Repo, www.svgrepo.com, Generator: SVG Repo Mixer Tools -->
<svg fill="#000000" height="800px" width="800px" version="1.1" id="Layer_1" xmlns="http://www.w3.org/2000/svg" xmlns:xlink="http://www.w3.org/1999/xlink" 
	 viewBox="0 0 375 375" xml:space="preserve">
<path id="XMLID_523_" d="M360,172.499h-15v-55c0-3.978-1.581-7.793-4.394-10.606c-2.813-2.813-6.628-4.394-10.606-4.394l-70,0.001
	c-8.284,0-15,6.716-15,15v54.999H135V117.5c0-8.284-6.716-15-15-15l-70-0.001c-3.978,0-7.794,1.581-10.606,4.394
	C36.581,109.706,35,113.521,35,117.499v55H15c-8.284,0-15,6.716-15,15c0,8.284,6.716,15,15,15h20v55c0,8.284,6.716,15,15,15
	l70,0.001c3.978,0,7.793-1.581,10.606-4.394c2.813-2.813,4.394-6.628,4.394-10.606v-55.001h110V257.5
	c0,3.979,1.581,7.793,4.394,10.606c2.813,2.814,6.628,4.394,10.606,4.394l70-0.001c8.284,0,15-6.716,15-15v-55h15
	c8.284,0,15-6.716,15-15C375,179.215,368.284,172.499,360,172.499z M105,242.501l-40-0.001v-110l40,0.001V242.501z M315,242.499
	l-40,0.001V132.5l40-0.001V242.499z"/>
</svg>