<svg xmlns="http://www.w3.org/2000/svg" data-name="Layer 1" viewBox="0 0 64 80" x="0px" y="0px"><path d="M32,2C15.458,2,2,15.458,2,32c0,7.915,3.05,15.376,8.586,21.01,5.258,5.358,12.172,8.496,19.545,8.926,.497,.03,.997,.048,1.499,.054h.036c.112,.005,.226,.01,.334,.01,.146,0,.305,0,.382-.01,2.491-.028,4.932-.359,7.283-.975,1.5-.393,2.962-.907,4.377-1.527,1.145-.502,2.258-1.077,3.335-1.722,.095-.057,.192-.108,.286-.166,2.072-1.273,4.004-2.809,5.752-4.591,0,0,0-.001,0-.002,5.536-5.634,8.585-13.095,8.585-21.009,0-16.542-13.458-30-30-30Zm0,34.097c-5.143,0-9.326-4.184-9.326-9.326s4.184-9.326,9.326-9.326,9.326,4.184,9.326,9.326-4.184,9.326-9.326,9.326Zm2.91,2.003c8.27,0,15.22,5.799,16.716,13.86-.11,.108-.22,.215-.331,.321-.16,.152-.319,.304-.482,.452-.176,.16-.354,.315-.533,.47-.165,.143-.33,.286-.498,.425-.185,.153-.373,.3-.561,.448-.167,.13-.333,.262-.502,.388-.2,.15-.404,.294-.608,.438-.161,.114-.322,.229-.486,.34-.222,.15-.447,.293-.673,.436-.15,.095-.299,.192-.451,.284-.251,.152-.505,.297-.761,.441-.13,.074-.259,.15-.391,.221-.291,.158-.587,.309-.883,.456-.098,.049-.195,.1-.294,.148-.347,.168-.699,.327-1.053,.479-.05,.022-.1,.045-.15,.067-3.044,1.293-6.328,2.034-9.733,2.185-.288,.012-.576,.027-.866,.031h-.729c-.459-.005-.917-.022-1.372-.049-.159-.009-.316-.027-.475-.039-.296-.023-.592-.043-.886-.075-.183-.02-.364-.048-.546-.072-.267-.034-.535-.066-.8-.107-.191-.03-.379-.069-.569-.103-.254-.046-.509-.088-.762-.141-.193-.04-.384-.089-.575-.133-.246-.057-.493-.111-.737-.174-.195-.05-.387-.109-.58-.163-.238-.067-.477-.132-.712-.205-.195-.061-.387-.129-.581-.194-.23-.077-.462-.153-.69-.236-.195-.071-.387-.15-.58-.225-.223-.087-.446-.172-.666-.265-.194-.082-.385-.171-.578-.257-.215-.097-.431-.192-.644-.294-.192-.092-.381-.191-.571-.288-.208-.106-.417-.211-.622-.322-.19-.103-.377-.212-.564-.319-.201-.115-.403-.229-.602-.35-.186-.113-.369-.231-.552-.348-.195-.125-.391-.249-.583-.378-.182-.123-.36-.25-.54-.378-.188-.133-.376-.266-.561-.404-.179-.133-.354-.272-.53-.41-.18-.141-.36-.283-.538-.429-.174-.143-.345-.292-.516-.439-.173-.15-.346-.3-.516-.454-.169-.154-.335-.312-.501-.47-.107-.102-.213-.205-.318-.309,1.496-8.061,8.445-13.86,16.716-13.86h5.82Zm18.361,12.1c-1.916-7.282-7.895-12.653-15.271-13.841,3.193-2.005,5.326-5.548,5.326-9.589,0-6.245-5.081-11.326-11.326-11.326s-11.326,5.081-11.326,11.326c0,4.04,2.133,7.583,5.326,9.589-7.375,1.188-13.355,6.559-15.271,13.842-4.348-5.064-6.729-11.453-6.729-18.201,0-15.439,12.561-28,28-28s28,12.561,28,28c0,6.747-2.38,13.136-6.729,18.2Z"/><text x="0" y="79" fill="#000000" font-size="5px" font-weight="bold" font-family="'Helvetica Neue', Helvetica, Arial-Unicode, Arial, Sans-serif">Created by nine</text><text x="0" y="84" fill="#000000" font-size="5px" font-weight="bold" font-family="'Helvetica Neue', Helvetica, Arial-Unicode, Arial, Sans-serif">from the Noun Project</text></svg>